{
    "asset" : {
        "generator" : "Khronos glTF Blender I/O v3.2.43",
        "version" : "2.0"
    },
    "scene" : 0,
    "scenes" : [
        {
            "name" : "Scene",
            "nodes" : [
                0
            ]
        }
    ],
    "nodes" : [
        {
            "mesh" : 0,
            "name" : "TQ_ARD-node"
        }
    ],
    "materials" : [
        {
            "doubleSided" : true,
            "name" : "TQ_ARD_front",
            "pbrMetallicRoughness" : {
                "baseColorTexture" : {
                    "index" : 0
                },
                "metallicFactor" : 0,
                "roughnessFactor" : 0.5
            }
        },
        {
            "doubleSided" : true,
            "name" : "TQ_ARD_back",
            "pbrMetallicRoughness" : {
                "baseColorFactor" : [
                    0.996078372001648,
                    0.9019607901573181,
                    0.6627451181411743,
                    1
                ],
                "metallicFactor" : 0,
                "roughnessFactor" : 0.5
            }
        },
        {
            "doubleSided" : true,
            "name" : "TQ_ARD_edge",
            "pbrMetallicRoughness" : {
                "baseColorTexture" : {
                    "index" : 1
                },
                "metallicFactor" : 0,
                "roughnessFactor" : 0.5
            }
        }
    ],
    "meshes" : [
        {
            "name" : "TQ_ARD-geom",
            "primitives" : [
                {
                    "attributes" : {
                        "POSITION" : 0,
                        "NORMAL" : 1,
                        "TEXCOORD_0" : 2
                    },
                    "indices" : 3,
                    "material" : 0
                },
                {
                    "attributes" : {
                        "POSITION" : 4,
                        "NORMAL" : 5,
                        "TEXCOORD_0" : 6
                    },
                    "indices" : 7,
                    "material" : 1
                },
                {
                    "attributes" : {
                        "POSITION" : 8,
                        "NORMAL" : 9,
                        "TEXCOORD_0" : 10
                    },
                    "indices" : 11,
                    "material" : 2
                }
            ]
        }
    ],
    "textures" : [
        {
            "sampler" : 0,
            "source" : 0
        },
        {
            "sampler" : 0,
            "source" : 1
        }
    ],
    "images" : [
        {
            "bufferView" : 4,
            "mimeType" : "image/png",
            "name" : "dil"
        },
        {
            "bufferView" : 13,
            "mimeType" : "image/png",
            "name" : "TQ_ARD-I1"
        }
    ],
    "accessors" : [
        {
            "bufferView" : 0,
            "componentType" : 5126,
            "count" : 1565,
            "max" : [
                0.05837202072143555,
                0.03670366853475571,
                0.062361691147089005
            ],
            "min" : [
                -0.0597415491938591,
                -0.03360772505402565,
                -0.06222526729106903
            ],
            "type" : "VEC3"
        },
        {
            "bufferView" : 1,
            "componentType" : 5126,
            "count" : 1565,
            "type" : "VEC3"
        },
        {
            "bufferView" : 2,
            "componentType" : 5126,
            "count" : 1565,
            "type" : "VEC2"
        },
        {
            "bufferView" : 3,
            "componentType" : 5123,
            "count" : 2757,
            "type" : "SCALAR"
        },
        {
            "bufferView" : 5,
            "componentType" : 5126,
            "count" : 1291,
            "max" : [
                0.058079205453395844,
                0.03596581518650055,
                0.061335474252700806
            ],
            "min" : [
                -0.05871530622243881,
                -0.03360772505402565,
                -0.061223965138196945
            ],
            "type" : "VEC3"
        },
        {
            "bufferView" : 6,
            "componentType" : 5126,
            "count" : 1291,
            "type" : "VEC3"
        },
        {
            "bufferView" : 7,
            "componentType" : 5126,
            "count" : 1291,
            "type" : "VEC2"
        },
        {
            "bufferView" : 8,
            "componentType" : 5123,
            "count" : 2757,
            "type" : "SCALAR"
        },
        {
            "bufferView" : 9,
            "componentType" : 5126,
            "count" : 2001,
            "max" : [
                0.05837199091911316,
                0.03670361638069153,
                0.062361691147089005
            ],
            "min" : [
                -0.0597415491938591,
                -0.03360772505402565,
                -0.06222526729106903
            ],
            "type" : "VEC3"
        },
        {
            "bufferView" : 10,
            "componentType" : 5126,
            "count" : 2001,
            "type" : "VEC3"
        },
        {
            "bufferView" : 11,
            "componentType" : 5126,
            "count" : 2001,
            "type" : "VEC2"
        },
        {
            "bufferView" : 12,
            "componentType" : 5123,
            "count" : 3282,
            "type" : "SCALAR"
        }
    ],
    "bufferViews" : [
        {
            "buffer" : 0,
            "byteLength" : 18780,
            "byteOffset" : 0
        },
        {
            "buffer" : 0,
            "byteLength" : 18780,
            "byteOffset" : 18780
        },
        {
            "buffer" : 0,
            "byteLength" : 12520,
            "byteOffset" : 37560
        },
        {
            "buffer" : 0,
            "byteLength" : 5514,
            "byteOffset" : 50080
        },
        {
            "buffer" : 0,
            "byteLength" : 559822,
            "byteOffset" : 55596
        },
        {
            "buffer" : 0,
            "byteLength" : 15492,
            "byteOffset" : 615420
        },
        {
            "buffer" : 0,
            "byteLength" : 15492,
            "byteOffset" : 630912
        },
        {
            "buffer" : 0,
            "byteLength" : 10328,
            "byteOffset" : 646404
        },
        {
            "buffer" : 0,
            "byteLength" : 5514,
            "byteOffset" : 656732
        },
        {
            "buffer" : 0,
            "byteLength" : 24012,
            "byteOffset" : 662248
        },
        {
            "buffer" : 0,
            "byteLength" : 24012,
            "byteOffset" : 686260
        },
        {
            "buffer" : 0,
            "byteLength" : 16008,
            "byteOffset" : 710272
        },
        {
            "buffer" : 0,
            "byteLength" : 6564,
            "byteOffset" : 726280
        },
        {
            "buffer" : 0,
            "byteLength" : 313,
            "byteOffset" : 732844
        }
    ],
    "samplers" : [
        {
            "magFilter" : 9729,
            "minFilter" : 9987
        }
    ],
    "buffers" : [
        {
            "byteLength" : 733160,
            "uri" : "data:application/octet-stream;base64,"
        }
    ]
}
